<?xml version="1.0" ?><svg fill="none" height="24" viewBox="0 0 24 24" width="24" xmlns="http://www.w3.org/2000/svg"><path clip-rule="evenodd" d="M1 7C1 5.34315 2.34315 4 4 4H20C21.6569 4 23 5.34315 23 7V17C23 18.6569 21.6569 20 20 20H4C2.34315 20 1 18.6569 1 17V7ZM4 6C3.44772 6 3 6.44772 3 7V17C3 17.5523 3.44772 18 4 18H20C20.5523 18 21 17.5523 21 17V7C21 6.44772 20.5523 6 20 6H4Z" fill="black" fill-rule="evenodd"/><path clip-rule="evenodd" d="M22 11H2V9H22V11Z" fill="black" fill-rule="evenodd"/><path clip-rule="evenodd" d="M15.5 14C15.2239 14 15 14.2239 15 14.5C15 14.7761 15.2239 15 15.5 15C15.7761 15 16 14.7761 16 14.5C16 14.2239 15.7761 14 15.5 14ZM13 14.5C13 13.1193 14.1193 12 15.5 12C16.8807 12 18 13.1193 18 14.5C18 15.8807 16.8807 17 15.5 17C14.1193 17 13 15.8807 13 14.5Z" fill="black" fill-rule="evenodd"/><path clip-rule="evenodd" d="M17.5 14C17.2239 14 17 14.2239 17 14.5C17 14.7761 17.2239 15 17.5 15C17.7761 15 18 14.7761 18 14.5C18 14.2239 17.7761 14 17.5 14ZM15 14.5C15 13.1193 16.1193 12 17.5 12C18.8807 12 20 13.1193 20 14.5C20 15.8807 18.8807 17 17.5 17C16.1193 17 15 15.8807 15 14.5Z" fill="black" fill-rule="evenodd"/><path clip-rule="evenodd" d="M9 14H5V12H9V14Z" fill="black" fill-rule="evenodd"/><path clip-rule="evenodd" d="M9 17H5V15H9V17Z" fill="black" fill-rule="evenodd"/></svg>